<?xml version="1.0" encoding="UTF-8" standalone="no"?>
<!-- Created with Inkscape (http://www.inkscape.org/) -->

<svg
   xmlns:dc="http://purl.org/dc/elements/1.1/"
   xmlns:cc="http://creativecommons.org/ns#"
   xmlns:rdf="http://www.w3.org/1999/02/22-rdf-syntax-ns#"
   xmlns:svg="http://www.w3.org/2000/svg"
   xmlns="http://www.w3.org/2000/svg"
   xmlns:sodipodi="http://sodipodi.sourceforge.net/DTD/sodipodi-0.dtd"
   xmlns:inkscape="http://www.inkscape.org/namespaces/inkscape"
   width="210mm"
   height="297mm"
   viewBox="0 0 210 297"
   version="1.1"
   id="svg8"
   inkscape:version="0.92.4 (5da689c313, 2019-01-14)"
   sodipodi:docname="welcomebackground.svg">
  <defs
     id="defs2" />
  <sodipodi:namedview
     id="base"
     pagecolor="#ffffff"
     bordercolor="#666666"
     borderopacity="1.0"
     inkscape:pageopacity="0.0"
     inkscape:pageshadow="2"
     inkscape:zoom="0.49497475"
     inkscape:cx="-51.510106"
     inkscape:cy="647.06361"
     inkscape:document-units="mm"
     inkscape:current-layer="g4547"
     showgrid="false"
     inkscape:window-width="1920"
     inkscape:window-height="1017"
     inkscape:window-x="-8"
     inkscape:window-y="-8"
     inkscape:window-maximized="1" />
  <metadata
     id="metadata5">
    <rdf:RDF>
      <cc:Work
         rdf:about="">
        <dc:format>image/svg+xml</dc:format>
        <dc:type
           rdf:resource="http://purl.org/dc/dcmitype/StillImage" />
        <dc:title></dc:title>
      </cc:Work>
    </rdf:RDF>
  </metadata>
  <g
     inkscape:label="Layer 1"
     inkscape:groupmode="layer"
     id="layer1">
    <g
       transform="matrix(0.35277777,0,0,-0.35277777,-27.970239,236.27183)"
       inkscape:label="ink_ext_XXXXXX"
       id="g3721">
      <g
         transform="matrix(0.1,0,0,0.1,-75.003828,34.850264)"
         id="g3723">
        <g
           transform="matrix(10,0,0,10,-8692.284,4430.5283)"
           inkscape:label="ink_ext_XXXXXX"
           id="g4545">
          <g
             transform="scale(0.1)"
             id="g4547">
            <path
               inkscape:connector-curvature="0"
               id="path4711"
               style="fill:#f35d50;fill-opacity:1;fill-rule:nonzero;stroke:none"
               d="m 10783.825,-4070.7242 -57.308,99.0344 111.176,-1.7504 12.255,-52.5294 -66.123,-44.7546" />
            <path
               inkscape:connector-curvature="0"
               id="path4713"
               style="fill:#465eb4;fill-opacity:1;fill-rule:nonzero;stroke:none"
               d="m 11261.448,-2453.1526 -68.679,-44.5144 -2.749,79.4932 37.082,10.6475 34.346,-45.6263" />
            <path
               inkscape:connector-curvature="0"
               id="path4715"
               style="fill:#465eb4;fill-opacity:1;fill-rule:nonzero;stroke:none"
               d="m 14066.131,-777.60688 -68.685,-44.5043 -2.749,79.4931 37.078,10.6477 34.356,-45.6365" />
            <path
               inkscape:connector-curvature="0"
               id="path4717"
               style="fill:#465eb4;fill-opacity:1;fill-rule:nonzero;stroke:none"
               d="m 10371.262,-3504.8795 -100.448,1.5815 34.804,83.1824 83.709,-1.3179 -18.065,-83.446" />
            <path
               inkscape:connector-curvature="0"
               id="path4719"
               style="fill:#f7981a;fill-opacity:1;fill-rule:nonzero;stroke:none"
               d="m 10371.617,-1673.7681 -15.997,-60.7157 -45.268,33.5668 13.339,50.6063 47.926,-23.4574" />
            <path
               inkscape:connector-curvature="0"
               id="path4721"
               style="fill:#f7981a;fill-opacity:1;fill-rule:nonzero;stroke:none"
               d="m 13250.716,27.519291 -15.998,-60.7157 -45.267,33.57679971 13.338,50.59630029 47.927,-23.4574" />
            <path
               inkscape:connector-curvature="0"
               id="path4723"
               style="fill:#f7981a;fill-opacity:1;fill-rule:nonzero;stroke:none"
               d="m 10696.696,-2591.7593 -74.945,26.303 51.41,74.5499 58.207,-26.0395 -34.672,-74.8134" />
            <path
               inkscape:connector-curvature="0"
               id="path4725"
               style="fill:#f35d50;fill-opacity:1;fill-rule:nonzero;stroke:none"
               d="m 11020.762,-1862.8105 -91.815,18.1876 34.54,66.4445 z" />
            <path
               inkscape:connector-curvature="0"
               id="path4727"
               style="fill:#f35d50;fill-opacity:1;fill-rule:nonzero;stroke:none"
               d="m 14427.517,-27.353009 -57.319,99.0246 111.178,-1.7504 12.253,-52.5294 -66.112,-44.7448" />
            <path
               inkscape:connector-curvature="0"
               id="path4729"
               style="fill:#465eb4;fill-opacity:1;fill-rule:nonzero;stroke:none"
               d="m 14109.997,729.12919 -80.05,1.2603 27.739,66.2816 66.699,-1.0501 -14.388,-66.4918" />
            <path
               inkscape:connector-curvature="0"
               id="path4731"
               style="fill:#f7981a;fill-opacity:1;fill-rule:nonzero;stroke:none"
               d="m 14639.242,1055.4582 -74.947,26.3031 51.411,74.5499 58.206,-26.0395 -34.67,-74.8135" />
            <path
               inkscape:connector-curvature="0"
               id="path4733"
               style="fill:#f35d50;fill-opacity:1;fill-rule:nonzero;stroke:none"
               d="m 14175.883,1584.6781 -66.434,34.54 0.923,58.6028 58.727,7.4464 6.784,-100.5892" />
            <path
               inkscape:connector-curvature="0"
               id="path4735"
               style="fill:#f7981a;fill-opacity:1;fill-rule:nonzero;stroke:none"
               d="m 12252.266,1706.0151 -80.541,14.5697 52.408,59.8324 34.327,-17.6226 -6.194,-56.7795" />
            <path
               inkscape:connector-curvature="0"
               id="path4737"
               style="fill:#f35d50;fill-opacity:1;fill-rule:nonzero;stroke:none"
               d="m 11351.479,1760.9523 -53.231,-33.3062 -10.008,55.4545 44.352,27.7652 18.887,-49.9135" />
            <path
               inkscape:connector-curvature="0"
               id="path4739"
               style="fill:#f35d50;fill-opacity:1;fill-rule:nonzero;stroke:none"
               d="m 14434.854,-1821.6708 -53.235,-33.3161 -10.007,55.4644 44.354,27.7552 18.888,-49.9035" />
            <path
               inkscape:connector-curvature="0"
               id="path4741"
               style="fill:#465eb4;fill-opacity:1;fill-rule:nonzero;stroke:none"
               d="m 11847.864,1211.05 -54.489,76.1172 70.659,24.7907 z" />
            <path
               inkscape:connector-curvature="0"
               id="path4743"
               style="fill:#465eb4;fill-opacity:1;fill-rule:nonzero;stroke:none"
               d="m 13549.222,1708.2984 -54.488,76.1072 70.659,24.7907 z" />
            <path
               inkscape:connector-curvature="0"
               id="path4745"
               style="fill:#465eb4;fill-opacity:1;fill-rule:nonzero;stroke:none"
               d="m 10566.976,1607.5131 -24.791,70.659 40.778,42.0833 47.909,-34.7685 -63.896,-77.9738" />
            <path
               inkscape:connector-curvature="0"
               id="path4747"
               style="fill:#f7981a;fill-opacity:1;fill-rule:nonzero;stroke:none"
               d="m 14328.921,-4667.9159 -80.539,14.5626 52.41,59.8384 34.325,-17.6245 -6.196,-56.7765" />
            <path
               inkscape:connector-curvature="0"
               id="path4749"
               style="fill:#f35d50;fill-opacity:1;fill-rule:nonzero;stroke:none"
               d="m 13465.137,-4390.2796 -53.231,-33.3112 -10.008,55.4574 44.352,27.7623 18.887,-49.9085" />
            <path
               inkscape:connector-curvature="0"
               id="path4751"
               style="fill:#465eb4;fill-opacity:1;fill-rule:nonzero;stroke:none"
               d="m 13723.163,-4970.6055 -54.478,76.1131 70.659,24.7937 z" />
            <path
               inkscape:connector-curvature="0"
               id="path4753"
               style="fill:#465eb4;fill-opacity:1;fill-rule:nonzero;stroke:none"
               d="m 12561.995,-4839.9969 -24.801,70.6572 40.788,42.0851 47.909,-34.7705 -63.896,-77.9718" />
            <path
               inkscape:connector-curvature="0"
               id="path4755"
               style="fill:#f7981a;fill-opacity:1;fill-rule:nonzero;stroke:none"
               d="m 10949.267,588.83879 -68.679,-44.5044 -2.749,79.4831 37.082,10.6476 34.346,-45.6263" />
            <path
               inkscape:connector-curvature="0"
               id="path4757"
               style="fill:#f7981a;fill-opacity:1;fill-rule:nonzero;stroke:none"
               d="m 12402.411,-1248.6447 -68.679,-44.5043 -2.749,79.4831 37.082,10.6476 34.346,-45.6264" />
            <path
               inkscape:connector-curvature="0"
               id="path4759"
               style="fill:#f7981a;fill-opacity:1;fill-rule:nonzero;stroke:none"
               d="m 13854.147,-1477.6066 -68.679,-44.5143 -2.749,79.4931 37.082,10.6476 34.346,-45.6264" />
            <path
               inkscape:connector-curvature="0"
               id="path4761"
               style="fill:#f35d50;fill-opacity:1;fill-rule:nonzero;stroke:none"
               d="m 10489.718,936.15609 -15.998,-60.7257 -45.267,33.5768 13.338,50.5963 47.927,-23.4474" />
            <path
               inkscape:connector-curvature="0"
               id="path4763"
               style="fill:#f35d50;fill-opacity:1;fill-rule:nonzero;stroke:none"
               d="m 11256.579,1068.0404 31.547,-88.12761 -74.75,-4.4838 z" />
            <path
               inkscape:connector-curvature="0"
               id="path4765"
               style="fill:#f35d50;fill-opacity:1;fill-rule:nonzero;stroke:none"
               d="m 12976.007,1431.7178 31.537,-88.1274 -74.75,-4.4838 z" />
            <path
               inkscape:connector-curvature="0"
               id="path4767"
               style="fill:#465eb4;fill-opacity:1;fill-rule:nonzero;stroke:none"
               d="m 10424.375,-131.35751 -66.435,34.540101 0.923,58.6027 58.724,7.4465 6.788,-100.589301" />
            <path
               inkscape:connector-curvature="0"
               id="path4769"
               style="fill:#465eb4;fill-opacity:1;fill-rule:nonzero;stroke:none"
               d="m 13168.083,-1444.4723 -66.444,34.5303 0.922,58.6027 58.725,7.4465 6.797,-100.5795" />
            <path
               inkscape:connector-curvature="0"
               id="path4771"
               style="fill:#465eb4;fill-opacity:1;fill-rule:nonzero;stroke:none"
               d="m 11401.955,-3650.0128 34.344,-74.2899 -79.085,8.526 -5.289,38.218 50.03,27.5459" />
            <path
               inkscape:connector-curvature="0"
               id="path4773"
               style="fill:#f7981a;fill-opacity:1;fill-rule:nonzero;stroke:none"
               d="m 10513.379,-4573.3511 57.843,-24.4336 -39.636,-40.06 -48.205,20.3624 29.998,44.1312" />
            <path
               inkscape:connector-curvature="0"
               id="path4775"
               style="fill:#f7981a;fill-opacity:1;fill-rule:nonzero;stroke:none"
               d="m 12645.29,-2583.3535 57.843,-24.4336 -39.646,-40.0609 -48.195,20.3613 29.998,44.1332" />
            <path
               inkscape:connector-curvature="0"
               id="path4777"
               style="fill:#465eb4;fill-opacity:1;fill-rule:nonzero;stroke:none"
               d="m 11320.591,-4841.2716 -31.014,-88.3157 -60.881,43.5928 z" />
            <path
               inkscape:connector-curvature="0"
               id="path4779"
               style="fill:#f35d50;fill-opacity:1;fill-rule:nonzero;stroke:none"
               d="m 11977.559,-4250.0985 -43.594,-60.8803 -57.872,9.2092 0.942,59.1945 100.524,-7.5234" />
            <path
               inkscape:connector-curvature="0"
               id="path4781"
               style="fill:#f35d50;fill-opacity:1;fill-rule:nonzero;stroke:none"
               d="m 12610.42,-168.56531 -74.945,26.303 51.42,74.549801 58.197,-26.0394 -34.672,-74.813401" />
            <path
               inkscape:connector-curvature="0"
               id="path4783"
               style="fill:#f7981a;fill-opacity:1;fill-rule:nonzero;stroke:none"
               d="m 11102.959,-769.14898 -117.638,23.3048 44.256,85.1339 z" />
            <path
               inkscape:connector-curvature="0"
               id="path4785"
               style="fill:#f35d50;fill-opacity:1;fill-rule:nonzero;stroke:none"
               d="m 10533.311,-1012.2416 -66.434,34.53012 0.922,58.5928 58.725,7.4564 6.787,-100.57932" />
            <path
               inkscape:connector-curvature="0"
               id="path4787"
               style="fill:#f7981a;fill-opacity:1;fill-rule:nonzero;stroke:none"
               d="m 14460.402,-2999.689 -16.001,-60.7156 -45.266,33.5667 13.329,50.5965 47.938,-23.4476" />
            <path
               inkscape:connector-curvature="0"
               id="path4789"
               style="fill:#465eb4;fill-opacity:1;fill-rule:nonzero;stroke:none"
               d="m 14195.53,-3726.9695 -91.815,18.1877 34.53,66.4446 z" />
            <path
               inkscape:connector-curvature="0"
               id="path4791"
               style="fill:#f35d50;fill-opacity:1;fill-rule:nonzero;stroke:none"
               d="m 13911.837,-2600.5139 -66.445,34.5403 0.923,58.6027 58.725,7.4465 6.797,-100.5895" />
            <path
               inkscape:connector-curvature="0"
               id="path4729-3"
               style="fill:#465eb4;fill-opacity:1;fill-rule:nonzero;stroke:none;stroke-width:0.99999994"
               d="m 11956.442,254.08999 -80.05,1.2603 27.739,66.2816 66.699,-1.0501 -14.388,-66.4918" />
            <path
               inkscape:connector-curvature="0"
               id="path4727-0"
               style="fill:#f35d50;fill-opacity:1;fill-rule:nonzero;stroke:none;stroke-width:0.99999994"
               d="m 12915.645,549.06289 -57.32,99.0246 111.179,-1.7504 12.252,-52.5294 -66.111,-44.7448" />
            <path
               inkscape:connector-curvature="0"
               id="path4727-6"
               style="fill:#f35d50;fill-opacity:1;fill-rule:nonzero;stroke:none;stroke-width:0.99999994"
               d="m 11929.93,-2129.5086 -57.32,99.0246 111.179,-1.7504 12.252,-52.5294 -66.111,-44.7448" />
            <path
               inkscape:connector-curvature="0"
               id="path4775-3"
               style="fill:#f7981a;fill-opacity:1;fill-rule:nonzero;stroke:none;stroke-width:0.99999994"
               d="m 11652.547,-590.60608 57.842,-24.4336 -39.645,-40.0609 -48.196,20.3613 29.999,44.1332" />
            <path
               inkscape:connector-curvature="0"
               id="path4753-2"
               style="fill:#465eb4;fill-opacity:1;fill-rule:nonzero;stroke:none;stroke-width:0.99999994"
               d="m 13275.493,-3100.6532 -24.801,70.6573 40.788,42.0851 47.909,-34.7705 -63.896,-77.9719" />
            <path
               inkscape:connector-curvature="0"
               id="path4789-4"
               style="fill:#465eb4;fill-opacity:1;fill-rule:nonzero;stroke:none;stroke-width:0.99999994"
               d="m 12012.377,-3150.8839 -91.816,18.1877 34.531,66.4446 z" />
            <path
               inkscape:connector-curvature="0"
               id="path4711-6"
               style="fill:#f35d50;fill-opacity:1;fill-rule:nonzero;stroke:none;stroke-width:0.99999994"
               d="m 12572.775,-3725.9421 -57.308,99.0344 111.177,-1.7504 12.254,-52.5294 -66.123,-44.7546" />
            <path
               inkscape:connector-curvature="0"
               id="path4727-9"
               style="fill:#f35d50;fill-opacity:1;fill-rule:nonzero;stroke:none;stroke-width:0.99999994"
               d="m 13162.073,-758.07998 -57.32,99.0246 111.179,-1.7504 12.252,-52.5294 -66.111,-44.7448" />
          </g>
        </g>
      </g>
    </g>
  </g>
</svg>
